<?xml version="1.0" encoding="utf-8"?>
<!-- Generator: Adobe Illustrator 24.2.3, SVG Export Plug-In . SVG Version: 6.00 Build 0)  -->
<svg version="1.1" id="Layer_1" xmlns="http://www.w3.org/2000/svg" xmlns:xlink="http://www.w3.org/1999/xlink" x="0px" y="0px"
	 viewBox="0 0 48 48" style="enable-background:new 0 0 48 48;" xml:space="preserve">
<style type="text/css">
	.st0{fill:url(#SVGID_1_);}
	.st1{fill:url(#SVGID_2_);}
	.st2{fill:url(#SVGID_3_);}
	.st3{fill:url(#SVGID_4_);}
</style>
<g>
	<linearGradient id="SVGID_1_" gradientUnits="userSpaceOnUse" x1="1.2691" y1="21.4203" x2="45.1274" y2="21.4203">
		<stop  offset="0" style="stop-color:#3CCBF4"/>
		<stop  offset="1" style="stop-color:#1FA0E5"/>
	</linearGradient>
	<polygon class="st0" points="14.9,30.3 41.3,30.3 45.1,10.9 11.5,10.9 10.7,6.1 1.3,6.1 1.3,9.3 8,9.3 12.8,36.7 41.6,36.7 
		41.6,33.5 15.5,33.5 	"/>
	<linearGradient id="SVGID_2_" gradientUnits="userSpaceOnUse" x1="12.5479" y1="41.5609" x2="18.9929" y2="41.5609">
		<stop  offset="0" style="stop-color:#3CCBF4"/>
		<stop  offset="1" style="stop-color:#1FA0E5"/>
	</linearGradient>
	<circle class="st1" cx="15.8" cy="41.6" r="3.2"/>
	<linearGradient id="SVGID_3_" gradientUnits="userSpaceOnUse" x1="35.1054" y1="41.5609" x2="41.5504" y2="41.5609">
		<stop  offset="0" style="stop-color:#3CCBF4"/>
		<stop  offset="1" style="stop-color:#1FA0E5"/>
	</linearGradient>
	<circle class="st2" cx="38.3" cy="41.6" r="3.2"/>
	<linearGradient id="SVGID_4_" gradientUnits="userSpaceOnUse" x1="18.2792" y1="16.282" x2="44.1869" y2="16.282">
		<stop  offset="0" style="stop-color:#21AD64"/>
		<stop  offset="1" style="stop-color:#088242"/>
	</linearGradient>
	<polygon class="st3" points="27,27.1 18.3,18.4 20.4,16.3 26.8,22.7 41.9,5.5 44.2,7.4 	"/>
</g>
</svg>
